<svg width="640" height="480" viewBox="0 0 640 480" xmlns="http://www.w3.org/2000/svg"> <style type="text/css"> use[href="#heart"] { fill: #A3719B; } </style> <symbol id="heart" viewBox="0 0 40.0 40.0"> <path d="M 2,13 A 7,17 325,0,0 20,37 A 7,17 35,0,0 38,13 A 9,9 0,0,0 20,13 A 9,9 0,0,0 2,13"/> </symbol> <g transform="translate(36.0, 294.43)"> <use href="#heart" width="40.0" height="40.0" transform="scale(0.4)"/> </g> <g transform="translate(88.0, 282.71)"> <use href="#heart" width="40.0" height="40.0" transform="scale(0.9)"/> </g> <g transform="translate(160.0, 71.97)"> <use href="#heart" width="40.0" height="40.0" transform="scale(0.5)"/> </g> <g transform="translate(216.0, 218.66)"> <use href="#heart" width="40.0" height="40.0" transform="scale(0.3)"/> </g> <g transform="translate(264.0, 356.4)"> <use href="#heart" width="40.0" height="40.0" transform="scale(0.9)"/> </g> <g transform="translate(336.0, 149.89)"> <use href="#heart" width="40.0" height="40.0" transform="scale(0.9)"/> </g> <g transform="translate(408.0, 42.95)"> <use href="#heart" width="40.0" height="40.0" transform="scale(0.3)"/> </g> <g transform="translate(456.0, 369.67)"> <use href="#heart" width="40.0" height="40.0" transform="scale(0.6)"/> </g> <g transform="translate(516.0, 231.28)"> <use href="#heart" width="40.0" height="40.0" transform="scale(0.8)"/> </g> <g transform="translate(584.0, 193.66)"> <use href="#heart" width="40.0" height="40.0" transform="scale(0.5)"/> </g></svg>